<mxfile host="app.diagrams.net" agent="Mozilla/5.0 (Windows NT 10.0; Win64; x64) AppleWebKit/537.36 (KHTML, like Gecko) Chrome/130.0.0.0 Safari/537.36" version="24.8.4">
  <diagram name="Page-1" id="xVcyGUaBEV_35_00swmj">
    <mxGraphModel dx="1229" dy="497" grid="1" gridSize="10" guides="1" tooltips="1" connect="1" arrows="1" fold="1" page="1" pageScale="1" pageWidth="827" pageHeight="1169" math="0" shadow="0">
      <root>
        <mxCell id="0" />
        <mxCell id="1" parent="0" />
        <mxCell id="BnvojqkhXluDp6K0MkYG-1" value="" style="shape=image;verticalLabelPosition=bottom;labelBackgroundColor=default;verticalAlign=top;aspect=fixed;imageAspect=0;image=data:image/jpeg,/9j/4AAQSkZJRgABAQAAAQABAAD/2wCEAAkGBxMTEhUTExMWFhUXGhwbGhgYGCEhIRweISEbICEgISAfICkhICEmHCEhIjIjJiosLy8vISI0OTQuOCkuLywBCgoKDg0OHBAQHDAnISczLi42LjAwLi4wOC4uLi4wMC4wMC44Li4uLjAuLi4uLi4uMC4uLi4uLi4uLi4uLi4uLv/AABEIAKoBKQMBIgACEQEDEQH/xAAcAAACAwEBAQEAAAAAAAAAAAAFBgMEBwIBAAj/xABJEAACAgAFAQYDAwkFBQcFAQABAgMRAAQSITEFBhMiQVFhMnGBBxSRI0JScqGxwdHwM2KCkuEVU6Ky8SRDc5PC0uIWJTRkoxf/xAAZAQADAQEBAAAAAAAAAAAAAAACAwQBAAX/xAAmEQACAgICAQQCAwEAAAAAAAAAAQIRAyESMUETIjJRBGFCgfDR/9oADAMBAAIRAxEAPwDFseopJocnHmCXQ8uWZnokIpO3r5Y2MeToGUuKs8yeQVyFVXkc/moMHc52QkSWGExgtMhddD3RF2pJ2DCvliHsn2o+6FgQQGN2KJ/Aggj+hg/2o7XwTPBIj2VjYGkrxkDci/by9MUwUKESeTkJ0/Tk3EbEOPiSQU30/lgVi7J1As+pvEb5ryxZ65kwpWVfgkFg+h8wcKnFNXEZGTTqQJvFjN5UoVU76kVxXowBHPtjmGNfFrJHhOkgWC21A+xF7j298X+0HMPvl4jzd7Efw4wpdDAZdfPFzJZLUygq7s3wogtj+w/uxWysBd0QcswUfU4duxHaDL5PNTmZVYOuhSfzd6u6JHrsPTDcUU9sXkk1pFro/YDNS0zZeHKxeb5hiSfkt2T5+WPs99n2ZRI2+7JMJNX9gxV10nfwtsQfL+GG+PqMclSIEYDgoAGvyOpCVJvaioJ2ODnaDq6ju5HJjWNSdZ2tr3Wz4dzsSRsQcVemR+szAc300JZUk6fiRhpdfmP6+WKDevl+7D3256zksxmYXyo8SKRM1UG44HG2/HOE3quUME8kR5U19DuP2VifJBLaLMcm9M4y+WZw5UWEXW242WwL353I49cQ4N9HRQuZ0sGvKsTQOxLR2u/mOPTAbTXP4YUMLGRymvdm0RjYtV7+gHmf6OH7ofYeWRQ0WSXTQYSZt2sqfzhGlbVvwfmccdg+moM3kDLp0tE8wDiwXJdVFcE2AQPa/LGvZ/MM3iJKyKfMEoTtsDTaSPliiEaJsk7Fdfs4EiL3b5R2AOsHLAJe2mip1VzvZ8tsJvaTsJ3VmXLtlwNu+hbvYb/vD+0Qe5xsXQpf+zsxK6idydO+554uqr6Yn6TOe7IkjJU3QI+IMfMHat63xzvd7Bi1qtH5b6j0x4X0OAbFqym1dfJlPmP3eeKy19f2f17/APXD52u6Iqvn4oxUUFTRi7AVmUMB7UePbCImXLI7DTSVYJ3Oo1sOTvzXGFzjTKMcuSPMxEyMVdWVlNMrAgg+4O+Pctl2kYKo3PrsAPMk+QHrgt20NZ2cHgMo+XgXi9/ocSdnenhhGW+CXMxQsf7p3O/lz+zGRjbo2TpWFuzvZHvwTFBJmqNNIzd1CD6Ammbf3HyxonRvs31RsXbKxSbhEjgDgMB+c0lswvyFfPBzOdZhVRACIYkIVWQHSB78URQ9ece9jpklkdpHDyBtirH8aHh39cUcWo30SeonL7FDtJ9nLjdcvFmY+NUB7mUEc+Ekxt9AD7Yzbq/Z4x6jGWYJ/aRuumWL9ZfMb/Ev1rG/dQ6nom0PK3dsbNJx5WbB29/LAD7QshHPkWzy+GbLgFHuyykjZuL9hW1nkEghKOvcFGe9GA46UYK9c6donVVX+2WN414/tANvQeKx9Md5qxkVVtmXMyAgngiNARXl9MIap0VJ2rBDG+OPT+ucMPQezfeuEKSzSncQQ8j/AMSQghB7UT6lcC+g5fXIx/3UUkv1RbH/ABUcbd2ZMeX6dlnj0eNFllJNF3bkXtengb+Xzw3HCxWWfFArpXYORApb7tl9RoLHEJpPcGSW1DAbmrHnhhzfYxTHa5xzroKJYIXjNcg1EpN8iiPriCHMLmJ+6VyYmYuF+E6tO/IBN4a83l1aBeUZRasSBpIO17euGSVVsnUrvRjfaTsUUTvZssEjq/vOUspXq8L+JR6kEfXGf9R6c0JFlXQ/DIhtWHt5g+oIBGP0F0XrigLGGMki6gFYKEBJ335PtjOu3fQo4820KLoWeFp1SjSSLqOkAgUtKQPZq4AwM4DceUzdQTsASfQY5vBnstC33rKvXhM6qDfmChI2NjZhzQP0NcV/e/f/ACxPRQCKxf6XnjEwBPgJGtaBFX5g7E4paq4/HHiLZAwMW07RskmqZpHbbtFkXjjihCzLXiqxp4qjpBB9QNhhPfs7L3QmFaWDkb+SMB8rNk/4H9MMsH2bTHLHMBgTp1BT+NYaI8jlhFksuJFMMqRvLJqHgJ7nWCeAbj8+NeKWnL5CIySXtAv2cddyyFsvNGscYU2zEeJvQsw8I2P9VgP2xlh72RImT7tepNHOogb+lcmhVijxZwa6B9nbTK7iZHOtgDRJZQ1AhvK6v3B2OEntX0h8tOY5G1MPPGSclEyKhz/ZRyiqx0vIEWtiVJF2P0bI2s3vx9cWOsyqWjCOrhIkTUoYXV+TKCDv8vfA3H2J7KCbJZkxurjlf+mN++yzpGRzPThsGclxKA5DA2a1FSCbWiL232x+exjRMx2IbLwJmEAlDKCdV0L+RFjDsUZS0mJyuKabPu02TTLZr/7ZMRTNG+k7EDT4iRswtipPqv40egZfXmD99dmjRS4VzalnYWSDeyl2dr9CTeCnYnNyZ0zRzGvu8TuoVUVVUAeHSFHI1DVyNucetJJlxk3iffN94W1KrAKjNagMv5xskncbAcYenGhb5XxNN7T9kMovTpfFpWOMssjaTVLtW1LfHgrn6Y/O3Wc6JZdVk0qpqPLaRWo+5GNn6J0R82mlh3MasVVYSQprbhgVG/kBtjO+1PSwkksTEMUEhSSgG/JnxK1bEb7HC8nKMabsPG4uWgf02ARQ5iQzQtrg0BVkXXbmNvhNN4eDW9g4BE3iPHYwix5r32bxx554kl0GJIUh7tgD4ktzsfM0CDxs3JGNC672cWNC0M8kMtERkN4AQLAaMAI60KOpTXkRtjOuzvQjlOmRdQig+8s6lpV1FdK3tpK7jTXI3xV6d9p0skyR6NEb+FyGMkhH6KvIRzx5Dz5w57rYhedB3/8A0YrkUzfcEMQ6mPX4GYstEH4gukMarmhfnh06b2djniueQzvsJS1lSSA1LGfCq0RVC/Uk7lb6h2Xy0TFO5tUy5l0eJiCGALgVbNe2kgCrOoYXR9q7nMtG0TOurShjPdy15BgAytvfh07eRxst9MyK+0T9ulXItnI9KiKfL92ukbd5dhRuT8LatztXoRWWdK6JNmiRCgcggEFgPiDEckbUp4/iMbN287P/AHnp8+akiaF4RrjDMSxA+LXfJb19h6YxgZcRbyaCa2U77+hFftB22vnATfQeMJ9qMrqzs7N4UElEXudIUGr8gRVn1HrjnKdQiXJyQCyxnV0258Nb+e1bVRJ9MBMxOWocKKoelCv6+e1DDh2V6Gh6bmM6VLvFMgFcqq6GYjYi6Y8+mNxfILJXHZqvSOjST5SKb7zKqsq21IzH8291ofIhj6nAXIdocvDnZY53uSMBhJGrFJUFEalXZX0kE14dvLcBL6r9qEzBfu0CZZxuzqxa28yqEBFvmiG+eCuU6I0uVbPtJI88yrrugGJdEO2225XYVenf0Yp2+xDx0toauh9Vi6jPN93mZAlqHZQzufLSjAhEqzdFtyPD5jPtUimysCIcxIwlP5RSEAYCtwVUFQCQKJN7VhQ6p1WbpWYcZSRlEm0gdQdVcbnVverdGr92L2Y7XJ1GIZY5Z1kZkDyGQyXuAAur4AW8RG/Fb+XcrdNmcK2uhf7dyxz5yOPLeNVjihSj8RBIFX62PxxS6jl5IslEkqSIWmkdQ4YAjQgtbFc+hN4v/ab0Zcp1Bo49lZUdR+jf+ovHsp7nUillWFFLMAGdydti1gDCJvbKYfFEX2dyRDMusxpHhkjJ/R1aQSfYCz9MOf2V5meYjJpLCIlUyL3sZcqxN0oDKCCfFvxZxX+z3ILms0yygsERrWRV1AsBRDLQqmwP6X2jk6QheGNHaZQgZzYR4yysaG55+EkYbB+yxU1cqH3tNm0yQjbOd3TPQfLhlkUqeaY2ytZsjj+9e0XW+33TjEsXfSylqqkILA1RLyABQRsSODZ4wgdkJpup54ffZjLGupyJTaAnbZSwoeykVQO4BBN9tuzw0Zo+Esj6FtVukRTSkuCOQNNNsy1ucYpt7OeOK0OPUsjmBlpJxLk1ijj1IO6drUgEKZHNe2oA/TCP0mUZhsxm80+pocswUKoVVLq+ygeS+L5k/LAvsl9oedivLyN95jm0pplJYpewKk+X907beWHiXszlUbqMMLEgZYl2LAhGOtgu3BCiz+sPUYOErVsCUeLpGVdk+nTtPBKkLNGsiliu+yFS11vYB/btgd98j9T+3+WB43GPcS2VH2PsfY9X1/o4E0dOjdtMz92bLNTR7AmyG07kjYb+EGxzWKDdqdCNHHEvi9TYU+ZXff22Fc4FxdObl5FgB8mJsj9VQW/EYMZXsczprSLOyLYGtMr4SSaFanBO/thylOuxXGH0S9F+0CXKqRFGAxFE6zR9ypHPveFrqWefMSNLIbdjZ/0/lghnez+hzGJNMg5inQxP/wAXh/4sCZ8s6MVdSrDkMKxk3OtmxUV0RjHd18/6/HH2vy/b/P8Ar8ccEVhQw+bGi9kftP8Au2W+7ZiAzquykMB4fQgg3jOTi5kumySC1AC3RdzpX8TyfYWcHCTXQMoxa2Hz2my65l5o8oyKVpVErAg2Dq1LR+nyxD0/tQInil7hXdOS9tewFgE0GA4NbXj7pnZ0S0EM2YP/AOvAWVf8TlQPqKxY6h2RMS6pVzcC7jXNljosc2UYkfOjfleHcp/oXUB6H21RLCVjybiStrcBb9dt/wABjKuodalmZ2Yga+QB5E2R67nc+tDHOb6RIil10yRj8+M6gP1h8S/4gMD7wqTl0w4qK6Orx3GMeLtufw9f9Mdc8fh/LABml/Zr9pkeQgfLZmOSWG9UegKSt/EpDMo03uN/M4B9r+q9MzM/fZePM5eyCwEcdHzJAEnhN+e/JPthTy2WeRgkal2PAAs/9B5ngYM5Ts4rNofMAyf7rLo07/8ADSX/AIsMjb6AlSGBO30feoTHOyJQBaVy5UcgkSCwfNbr9+HXp32sdOZ1ByTIFW9QSO128W+oUL2sHe7Nb4ToPs8LKCMt1I2Cb7qEceqmWx7A0T5YDZvsyNWmDMVKP+6zCmCW/wDF4Cfk2CbbBXFDx9pP2ow5jL/dcssg1Ed4XAGyn4fC+q7G/HHocZE73uTZx7nctJE7RyoyOvKsKI/H9+IdWFhkh39j64dvsx7YRZF5Yc2pbKzjxgLq0sBsa8wRsa9sIox13gHv7+nyxydHNWqHDt9P0mV1kyIlRyT3iFNKezC9wT6Dn2PNHK9p5I8qMsJpChJLIb0VtSgDcUQG2IF+W2KEfQXGkzSJCH+EPqLtfmI0Bf8AEC8MWQ7Au6sRBnnoWD3KRBv1e9k1P8gLwyLa2C+NUHOz/wBouShhk+8ZY5rMm6kk8ZfgBS0gJVfl77E7kn2e7W9DTTM6d3LZcosLaUfzCaQedvP044wkdZ7GDLgGUz5e+DNGrqPZmhdih/WXADOdKkiXWQHiJoSRtqQn3YfCfY0cc7WzKjLRP2s642ezcuZYVrbwr+io2UfRR+N44j6yaAdNZUUHDsjV6ErzgY2+4/6Y5wpuxi0NXZTtg2UzcUwSolY94gJJYMNLEsd2IG4+WGbtP1ro8mXzMUQLOz97Eyo6tqIAN6loVQvyYX+djLsEOndJklGsaY4waMsjaUB9AT8R/urZwcZNaQLinthLsn1v7m7yRyurshUaRtufzrBBFb1XpuMXcr21mDSGSWR1kdXcamAkYEUSAfRQCNrAA2oY76X2P74qI1zU+oWO5g0Iw9dcpX8dNYYE+y4t3mmCYiPzXNRNrPmqjuxbDzBIHoTg02voF0/s+Hb3p82ZgeXIQQogLOyxW3eEc+EDUgbeuTYN7EGftN27yQyeZjyIqbNOdf5NhpjayxLNyzcbcXQ2UYT+r9kDE+jvGik3qPNJ3RP6r20Tf5xhfzuSkicxyIyOOQwrb1+R9RzgW2kaoxbs5SIEhRySB9Tiz/s8f7xP+L/24p6hx+3z/wCmO+/f/et/mbCgyHj3OD/ZTocuam0RkK2kyM530oPQcljwANzY43OF0nDj0RjDMUal76GPQWAo1pIFn1II9yK5weONsDLKloY+mS5bIsyiMElWUtJEddn1JG3qNFb/ALT3ZPqMks7OTKsdHRTkhG00WNnUR5/swrZ3p+YkUzPVAUBR35oAb0Tvtgn2ImZH0SE7X+SI5sD1G4NgEe49cXcV1RE35CebzokmEPUBHLHFG+kvv3mxKgHkG9tSm9hhR632fIgaWIOYI61wtu0N7akf0vkH62LII9XZ3nWNTejzo0tm648tt8GcnHLlkkXMtpRxIGLBiGUg6h8QUWPMr9cDKKoKE2mYxPFpNc+YPqDwcTT5VljjckaZNRUA7jSdJv03xdmhAiyrShgpMillA1aQVO1+hY45z3/4uVvy77/mGInGi1PRX6Zk2kdQF1EsqKv6Tt8K402Xs3Hk4y8i/eZdOkyC9ELjfSi1pIWheoepFYROnsYkyuYI8CzF9vVGjP40Dh16hl13k/KSq29rJpQ2LFclrG549DinBBMnzzfgtZzq7TsFgc/lBc0asQlg2WGrZb24Prgx1nqM8EatFKFuFFdLJIUnkH4b8tr5+eEGbLyxuvhKlj4b4I+eDfahZ9EZdlYceEVzuBXnXsMU0ibyXeodKy87n7qrRyIVHfoxLNqANso8DC9mGxrzOM97TdLaCaSORFSaM+NV+Ag8OvsRRrjfgbgNnS4poSHSNSRRKstsB5Ghv+BxW7QJ32dgTUXcxsr2vCkuQCLJ2Uk/h88Ky41Q7FkadCNlsuz66ItVZzZ5A5r1Nb17Y5gjLMFHJ/q/oN8E+joo73SxJOWkLA7U3oP0hQB8v2Y46FlTJ35UXogdj7C0B/4ScRKNtFbdIcezHZsNB3kl6HGpYQdLzLZHeSGwTHYNIp9CfUsWX64sCPGqiB0ZHiVU0iwtMCF4DUOfnit0TLwZnJQzeEmCMQzKASwZdlcDggpW/re14rdc6ekTROI9MTGzsbK+tWTxvdDF+KEeJBlm+VMeOjTyS5aaSWQiSQq1hePQ0DwNt/54pNn4syGGeeJ0DFdFEkgcshHiBN7FawtZbL5giYZMn7vwQdNttZ0nTZ9t73xZy0MRzC9xJKI1UHvK8QatxQHl7Y3gtgqTBPajs5oy+v8AKyZVANnU97lb40MQNcQsAofmP0sZzmsq0bFWrbzHB2sEfMbj2xtGcJjymcaeXvI2idEtuS66V0jyYsaogcH0xmHX8pWXy0jtTmJgq6fjVZXA34FKfP0xLlhRZim2tgbPZdonaNxpZeRYPkCNxtwbw0djuzLTSHU4iVNJkkNDSW3WNL2EjD847IP20utZbvepaOdckKkfrCMfxw9fZxDFP99hmIVlm1266h47Ugj1BTn3wOOKvYWSTS0X8tNlsm/5FNAIZZVO8tkVq73/ALwavFyKvjE3ZnMyTSLqmpYpCyhhZYseSdQ8h5X+zBHtD2XhgjfTGLA3kPv+io2298D+g5SHRR1CUAhHjcBifL4rXTXJI2rFi48bRFbvZJm+sJlM27KC6mxobYqfK9R4PJ+WA3UsrlZpCYWjgmYHvXRh3Lkk+F4iKk99Av5kYt9q4cuI17sP35YFzKylifSl8OmtwQN8EMv2YJCtDHJG2wIjlIbfzXeq9QdPzx3GLVyOUpR6Md670xoXcaO7aNtMibkIx3BUncow3F/L0JoHLsYxJQClit2PiABqrsbH0o4fO0+Xikz+aiiYtFFlmSR28XijXUTY50uFX/DhTlIXJgKwasw9H1Ggbgc7++IZx8ovi9bOej9LMjL4C5ZxHHENjJIeFJ8lAok+44u8bp0PsjBk1DzBcznAu1r+TjH6ESkaVA9a334vGWdj5zDnOlEqSCde3JLySoT70qr/AJRjW81lVzExfU/dJSlVdkYsbID2RXHy+eGQgvIrLNroD9b7RyFo7GjMRsAWABoeoK8ijxiz1XOd1k42imqyxDk0W/w8En0Piwq5oqsuuJNShiNBOqgSN9+d/X1w2dXy2UTLiRYyz6VJRpHKIdJ1aULVYNAA7Dy4xS1VaJE7Tdgzp3WUmURSxmVCpHdldZlkarc3sKGw9MAu2fZpY8vrAY5ZSA0ZIaTLFtgyEMbjLEBomJq7FWCLXQMpHI7JKhYnxDSd0Fn6cYMdtenw5Lp2Ya4yzoI0VdQa5KHiBY8LbfMDjAZkkhuJuzFJenSCbuKBcsFWjs2qtJB9GBBB9xiP7lJ+j+0fzw0ZzK93L0ti9yMkRK0QQvet3ZvztKFc+EeuB94jcdldi4Rh17SJ3mUykteJU0t+r4dF+xOoDCaE9cPvXYicjlJlruXhEUh38DBk325IZb/zeuDxdNAZe4kXQs5k0jlbMbWE7sgyF7/OChXUV57nYjg2Bitke0mcUvIjfk7Zo2kXUbGwAbYs2nYlvTfEP2hdF+7TQop1RmCPQ4GzEDxEfNt/qMNPQstAvRwZZI43YrsVt6MgJ20avhUOKJB297ZyfKuqBUVxvuwR2f7QLJmNHUHKRsEC6CY1UWOTHTaStmy1Xvvvij1TKI05SKNVMkpWMglvDYohmvVYI38zeCHa3s0s0rS5WRWWh8SNHqsnjUiLfFqo2sX5nDF0vIw5bpmTzOaRnzEM7CCMbamLEqrGiQilC3yG3OMTfTNkktoH/arkIIfuWXBpI0calF/mREkC97bfnz88IPVpY9EUccpkCayS0eggsQa+JrG3O2HD7UITHl+mxvXe93I7AeWru6538jzjPMLyPdB4/iap0HoozPQWCi5I3eRB6lWNj5lCRgV2S6rEcu0LQLYBqRGKMzEEiyCCT5VwaHni72bjM3Q5TGxWbKTmZSORQDf8urAnoHZ+STp2cz0ZNxeAIo5B0mRvkEbj2w6Mq4sU43a/Z31HrkkbRmKQNaUyOusx3sVvSpIY3sb8ucVB2vzTUkndhbVS/dm1UHm78jv70MXfssiypmmOclES6KUsoILGwRTKy3pNgVfpwcSdcjysmUdo5WOYMx/Jd2R4F2DBymrxIBIQWrUTteO5Se7N4xWmgpJnxHHPI7NM2kCJ2kYX4QGdVj0rp1GqFi6Fm7wa+x7staS56UbSWkV+moh2/ZpH1wo9heycmdyubXvtHdgSIpOxfS1FvQMBV+2HjsFK/dSZuR6y+Uy7xRqCdNKqljXqNPnvbEE7UOcroFRq0ZVlEhhjkbvyWeF0VCjrZagaYAqwH0B2O2G77DshHLNm0cWphCn3VmIPy2xnGYzbPQ4UcKP6/dQ9sPf2I5offpMux8OYgdPqKbb/AAhsIT9w6a9oY6LJ/s2TM5OQBbkDrPR+Eil1VwrAee2rVZ4xf7V9pIXTv8u8feJGxkOzoTsoFVdsTp2I3I8rwn9NkeDqDxsZJNDyQ0zNbxqW2JBB4GravOqw39usxIubgTu410KpIVQGttiq2dybIA8yPXFceiaS9wmQfaVmR4e4gIICkU24HF+L6fLDr2Q68kyibNmLS4ZlSJSKdWohj4jdUwrTsfPbCr1jomRXOJBHmHGXfxSStCdcbHVcekIANwNtO3Bww/Z7mmXPTRMqyHu2VVZVBOgUAU07EijRK152QcBFy8sOcY1pFzrOjqs2WghiMUatIxlZK2AAYqDuQNSizyzDyG9T7aeiZdHycXfLAqRMi6ldrUEeagm79ebPvgGwzWYzmhbhJdbCMV7tXEbWKJ8gp+ag/Ip9suSj7zKZcSkfd4dOp1YiiQBqfi6UHf1wOU3F2KPS8ykvWsu+pShzEIDC6IBRQfEoIugaIFY0zrmTi6b1F8wdPc5yMhtQ8KSWG8VcBqZrrbxel4xNkky0qMaDIVdSDYNEEEHzG2NV+0hY485lcyXcx5lRNIhYlRWkWB5Aq1H5e+BxPYeVD1k84TDTPFJHXhkV12F8G74Hqd7xm+b7fxZWdokiE0SsSCjFDfA+IMCdJNkbGxVVvH18QRNmctLFDGAhZWSg0pItCGSNSV3vc1zYPGFDraJBIFGXPdsorvk0uaJFhhsdxuQObFYbOTirQqEVJ7HLpPamHOy926rAiguGd9RHHmQoLA7WTuPfDXne1eXWLQ2aUCIXSsHeRtqGlCKFYyXpGVjkj72aIBe+RQQulDQsqXuxak/gDeGLKddjClWgWlB0U+o6aIJsqBpA4uqJHywUZNpWDPHFPQxZDoEUXSM3mZAqSZgMxJF90klFR68OrEc+XljLM7oTLpEsqSEyFzo1eHwgUQygfUE40aXIaOz2YzOslpmVSuo6VVJtIUC+SbJOxN4yRvbE2TTofj6NUyWTEnSMnm41DS5Z2Gi61Lba0vmyoDfX33KdP6lIpMmUkLQMpZtdkGh8JqyGC8gg8fXAD7Pcuk2SzMMrGPuv+0oysQeNLahXwsuke92N8BI+oOsgaISRwM+gkaiNQA1DwfneY3JIPmNg/FNJCskG2P2b6rl4I++lQxsWAHh1izvqCHSSo2JVSpq6o74X4vtEy5pTCygAlifFqJIoKLGil41FhzdnfALtgmWZmliklckCu8YsLG2kEjUBttfP7Sq5cqWUMAFvc+2Oy5JKVI3Hii47Nt6TnVj8cCL4hqBYhQbvilJsHzBwK65mO/kTIztGzSTq0pXegDxqvk3oCgjnfCPKkYy+iEEya/ECtkqdhp8gDudNe/lgp2M6bFPmIo5XcfEGAerC3SiqK+Lbmz5euDb5OqFqPHdlvt1NE3VC7TpGISgVCrHZdLr8KnY6iPajhO/2p/dX8f8A4457R50zZqeU/nSNQ9ADQH4AYG4ilLbLIr2o9JwYyXaSaPLtlaR4WbVpcE0fYgisBcTQQ6uSFA5Y8D+JPsMCm09GtJ9lzPdamlcOzbgALV+EAUALJIGDeS6iZlga9ckJIZCdyCKDLZokbftxWyvSADTgR7btKpd1G25jBpR87OCaRomlNUjubVlvQFO1Fe6q/UElh7YesU5dinkhHoqmd40ZZmfSysGWRh43Oy6VDHTQJBNjHkfbOeF6jKSKumteojUAAXADAAnffzs4JZ6PLktEjTCQNpUGpQ44thJRDX+iQN+BgN1joQRpFtPybFTLFqMd7jxK3iUWK1La46WOcdpnKcJaZB2n7V5jPsGnKbVQRAKq/PdiNyaJPJwDVbxNNlmQ023uN7+Xr8+MQs34emEO72NSXgL9C7RTZVJ449JTMJocMD70RRFHcjz54xDF1qZYGyytUTuJGAvchSovfit69QPTFCKIsdKiz/X4D3wcyPRCy6wodbrvJCVjv0WvHJXnp/Ct8HBSekDLitsHJ1abToDkD2JBPHJG52HGJMtnMwCdBe61ct5eZBNH64dpenRwxLJHmDINQ1iJBCo/ujT+UJ97Fjj2IdTMUQQ91NEsw1X94c93sANJsgityHDWa4xQsM67EvNASuldbbJOXQrI7Bla7ooQQVNNwdz68fDW97K9vZ48rJlYoYVWUU7UzE3ydLkrZHt5cYKdQ7Kd8dUCrmFe2VfDDmK5J0jwSCtwas+2EnPdOKWVJKqaYFSrxninX803tfB+e2FTjOOhkXCWygMEOhdUfK5iLMR1riYMAeD6g+xFjFIb/P8Afj47fP8Ad/PCRgcftJJ96bN6VDM7Po3I8QZSNzdaWIvEUfaOQFmIV3ZQuuQs5X3XU1XW297Y+yPRizASB2dq0xIQGN8F2baMHbmzvwBvhpj6KcuAXMcV/m5cCRxRohpn1BWHol84oxxyS6FTlCPYrv1rNsQ5aQ+hC7V9BiLNddkk0h1Usu2qqJFk0QNvM+nJxp/TpYs4iRLGe+iUyFhM6hwurwudWtrBBJ1DcACheAufywzEmiICuO7zB7xVOwJMpqRAD5htvLDPSyfYpZcf0Cez/alzIXbT3wMbLqYqH0KqaS3O4Xjzs4n671ObMZp81Lqi1MhIZlEaIAAVADHWSB6DAnrvZ3uZDG6NBL5I51Rye8cm3IojV6gXeFt4ypIIojYgiiDiafLyUR4+An1jMowRUOwMh/VVmtV+g8vK6xb672qkzSZZXRQcvEIg1k6gKFkHa6HlhfxeyXT9Y1s2iMcuRe/oo/Ob9g8yMZG/BrryWs71+aZYI5PEsA0xi+Fu6vnbgegoeWOs51GTMH+xD1tahifxH7uMGYek90NoBGSocGca5XUn4lj2jUCj4Ws/PD30fO9PhU9538xpRTspDFuQiCkQi9itHbnFEceShMskEzKl6qUUxyQLRHG6H2NjmjikeotSjyX4bN0Oa/HfGoOmWBaA97GYwR3glLswG9ukmqNyTtQC1dbVhUzfQw6PKYToQ+KaAVpvjvIidI4u1ZV5x04ZEtmQyQfRXzXbKeXp8fTtC6RJq1D4m3JC1VbMbvzwHiiSManpm3AX0NkcXvxyRQsfFxibMxCJBQDXYEg451b8MrDY6SARV3R3FSSFjbEk+pxNK72PVeA10jr7QicBFPfQmEWSNALBtvXfyP8ApjjK9pMxFBJl43KRyG3ANXx/KrHltgZlcu0jBEUsx8v4+gA9TsMGundNjIJrviu5YtojX2v+0ko+S6fng4c3pAy4rbKp60zZdcsUBVWLLXOo+ZoWdtgOB9TismXdTbQsAObDfyw5dHliW++MgUAsEy+mJTQOzEAyMCaHxA784J9N6hl2QTS5SyWERIlkVADZ1BdROsChd1VeuH+jN/5CnljEz3qHVGlfXWlvM6iSaAAs/IV/W8/QOuvlZ0mVFYoT4TwQb22w7dS6Vlpv/wAeXvAFBKZsVXsJ1pw3oGBHvhJzXS0JpCyOeI5a3/VkFKwvYWBfleAnHJF2HGUJKgfnsx3kjyEAa2ZqHAsk0MQ4keEi7sUaNjcH0r1xHidjT6OMsQANzths7OP3DtmViSQQOsamQEqrmz3hUEWfCSP9Bha6YLmiHkZE/eMNHRxJAs8TEbuAylNQOkEqwPIvUSCBxz6YdhjbFZnon6/1RpJndt3YeIxggGxyQwOx8/Xzxx2YgnMuuFWciiwQ+PSOdNHV89NnE+ZaIxosJJaQapAatT5gkAHny22rF/sX03NRzjMw6NItCzEUuoVZF2CBvitp3aJE1VME9cV0mEjQGEE6lG6tR42bxD2JG/vjnockKSIZA7td6NlHys3z7jB3td0bMNOZn06WAAbWtNpAXULa+Bx5YrZfKIYPy1lxsoWtRNjSA3pXN4NRbdmOSqgN2qyEa5hkhFRyx9/EnPdk6i0XytWAH6uFqSEd0sgvxO61+qEP/q/Zhs6k2vPJJ4QkcSnZiwCoNOnUQLJPJG3iNYWJt8uhAq5ZNh+rHQ9fxxDkjTf9luOVpf0XumwJcaMLBXvZBZ8Q/MjsbgEUTW/i9hg7Lm9ZKtDISL0pfwD0UAeFR8qxV6EpTMF1dFIhj0lxa7rGOCCDsD7DDA3UYQswNd+5AtG1K43+Ct1tuVJPt6YpwRpE+aVsX8ijyOsaEAlhpDGl1eV3td7b4aO0GXzpy6xTQuqx3qaWgA538LFvESPJb+Xnhe/2HO7gRgs17Jw3rxfP9eeGztX0zPNlooyJDq/Kys9/2g1Jy3HgC7Dm/O8M2tC3Qq9OzjWfywjLAAswN1VVdgAUOMEO12UjXLwZmORXlAZZGB2kTUBpceosDk2PkMedFi7tws9aHFMCRp/H9t+WJ+0jq2RaJAgpbDk3JIqNYtQaQafNrLFRjpq4HY379CRPkF71lQkIYmlQkiyNBcA/IgqfkcR9KYKHlIsoAIxV/lGujvzpAZq9QMXAhDRqeRlpefcTMOT6Hy/A73B0mLUkY5vMRgr8wK/HcYgr3F16GfO5ZYEEaOj+bsLZnkPxMxA2o2ArEetbkmoublAKksAfIjkeu4wy5bOhZC2ZWMoCWHdFFKEkmytAsLN0L+uKPUsjmc2XmRWKqOXpSRz4QaJsegx6PxVIgu3sJdCyebhiuKOQ96hELxEkE3ZB0GhVG9Xphb6hPLHM+vTru3AIK3/hNEj5nfBLoPT8yY5XVZlaMDTpVviJHBXg6fPA/K9JzI/KFGAG9AEtt7Df6462douwSRtl5GlQzrINJJKgxsSCHHiJLD5AbkHbbCr1jKELKkhHfZdlW/04zsD76Tpr2YDyw6d5lyyOunvBu4YgJe/Kgai3kVA+owtdo4qzGbY/nxq67UKZ49gNRoXYAN7AfRP5EdWNwPdAZelaswkCk+Mx1wT41VuRtQvn2wz9FzKKfvCoo3KwBltY4wa8Km7kJsljfmeTYCHMmPN6/wA7uBX6xy9A/Qnywy9JjlGWhUCNoxHqHeMAFLWxO1tdn9gwr8eNyG55VE9zmcLRgiNwAQdZGwPqDufF58DHfQ8jKbmSHvFQ0+2oKPMsgBYivatsdOTNEsMSanXZmGlU9QL1aSffY4pZfLyJOgIZWYqBQ3smvLkX6c4sbI0tUXutxS6jO8VRSFgjadHeA7ghWAbbbcLXvgZH1iRFMYZlU8hTV/u3x1mY5pp3UBndSR4z7nY6jtve2CeTljhRoc0pOq1CkV4vIq58Frdk7/tBxmzaSAvWsssSxzFKintXTUGJArxitgbJIHII9GIwtZvpxjV9R3SXu/Y7Mb5scftw1dfyytlnZFRa0nwWQSKBtiQDd34VqwN8BerSh1mbyM0R/wD5v9fxP8cR540yzDK0TdBybSBIEBJmDySVyY47KrfkCylj/hPkMF+pZlU0qN3QaQQorSPzRQBK+VHfFLoDKzMUcowiiRWBqrFtZr1HqOcWZMxKrAsySEsFu1LvvsN7r54owKoWIzO5UV8hlmmkWNImZmO0YO58yAW86v8A1wX+6sQMuuTPe6muIBxKoI2Y/wB0bbkAc4HHIZlmeXu2FGyQfh/be39eeLvUutvJloYxNJrBfWtkelEte4qx9B6YO2hfdAuTOOimNtxe/wCtweNji/L1ETRRxZl1MMYKrGoHeDndSRd36mvXFHKZaRSj922kiwQl6vcDzHvWL5zsLbxGNF48YDF/fuqpd/Mn8Md32b10L2byrMDrP5SKRYmI3tGvSeaPBHPBXF3/AOlB+mP8n/yx11XMKsuZAXaXumUkAEAMu2ndasH6Vhn7v+vDiGUNlalSMujcqQymiDYPoRxhy691BFnjl0sUmiRnFUDtsVNHgGieeRhKw0PmUkyWX7weKGUxsQd+7amAP4mv1TjMUqugskbokyckJZpGcAG9Ncg7Vttfy+WJeu9pigEOSlZVIDPImpGLEEFBx4QCBxyD5Y7y3T0hmGX7zvZJD3elAQIiTpstwzDeqHlZ9MLnW0aOZ4ywYoxUsvBIJFj0vDsk5KAmEI8rGHoPabwSR5uSZyBcTWznXe6mydiLojzGOcznsuDbOzNyAVb14o7cbXgV2bybzyd2ponz+QYgDfk1Q+eLk2XjkXXLqjZUGxAonwqOCW89V177WBjoZWof9Nlji5BHo0muDO5mSPZUCqKpK/Q28/Ep+p9cKmbzoZFRIwgUkmmY6iQoumJA48qw29f6i56ZEij8i8rWRQ+EAqABzZ3O35uEasKyyfQzGtWOHTWeLL5bNKrEIZI5GABpSaAIPmBVfw2x7l+qw94ZGkp7sFgwO3yWv23ir2YzurL5jKHfUO8jB9RWqh+lpGofqtgx2KyGXaZO9lWnVAY9Jazqpg4PhA1DazvY24w7HN0qE5Iq3Z2/aDLxaJYGE83iYrKGUJV0vnrc8g3VV5nbzOfaJPM476CDTQoeIaVHIDCzZI22Nfjih9onQ1yWZMcYpG8S3vsfzd96H4/hhTaTcUK9cBPLLlthQxx46Q+dX6xkXLpHLJIukFWaM88nyskAVZAB9sBvvfeBYIVIViDIx2tb43Pn+PAwek6Zk8tlMvLKsrPMhawVryPmRtWwFkHexiPswys800aagis4A0qbGlByaQFvERfGGcpPTYtKK3FAjtZnFTMyoIV1qgj1amBXUu+wNbatPHlir2aiVoM0pIDqsc0Zut0Yg/8AOOdtsBMxmmkdpHOp2JYk+p3OJum5gCQayQj+GQrzpNXzt5A4m5++ynjUaGwdp8q+gzRsCN3VUBtqq7J+G96/ljuftQtp3AbSgFh30hgKHANrte977YizGVSEWqgrSsGoHWtinF8bb+lgjAbPNGwLooBIYsKqiCoBA8rB442xU5SiuydRi30a+vXcsYkzUGaaNA6LLB8JA0kHbYtXI2N6dsI3Xu1itmZJYQFivZQzBj6sbB0knfbCpGyErqVyf7v8ACAf2YlyIiMhMyVENzW1nkLqHGqj6nYgHzwCyPwd6S8hpu0iA97Hl5QQW1SBdiW5BPHOKb55XgnzE5WZ5XRe71EFAGBA2INaFIFCvri1FnWnURgAJYCILC+mw4Avb6YD9pujiCZYY2LExq7DbwsQdiQa2FfjjssnV3YeNK6qitDnlfMB2jAU0oUMdhpCAaj7cE8fTBPK9a7lTBKveqpIUqwND0A+E0bo71gHlsixNnwqDRP769a/r0wa/wBiAIjhu8ikBOoeoIBB9CCa8vL1wrE5fxGZFH+RfyvWVZAERFsaB+UOoad7Kqt73yTRI5w39T6amaghlyE4eSNbePvKlQ2PFzYo+e3kecZcsAjzAU7gXz57GgQPXYYO9J6gsLiZnaBkNgRqG1nYVpJoepJ2scej4ZJP5CZY0viMUMcWWhmbOyus8g/JxjeW2v8AKN4gdOqjudwD5kYV+oddIWvA9WviLWbo3R49LDHjH3Wc2J5O8RpJS/k6hSnIAAUkEelcbAYodyrMFolhuWv5bV/E46U5fxZ0YR8onzXaB5kjhaljU2V1G2421HgbYpdX6okoIWFY/HqOliQaBUAX5AHnz3PngjN2fZ4pZlFLHd7jxEAEgWdqG5PHAws1ifK5XUh2NRr2hHI59kYOBYACut0GHkNuNvPBJOsK2siFF8NkFwtgEbJ4ed+N7A9sDul5ASpKwbeNSxXbddtxZ3o8iuMd5jKAIGtyTQNn+tsFCUlHRklBvZqPZnpX3jpsk+UH/aJLikSzVeagsqgsRRrce+FH/YWcMndCGXUCQVK1xROonagCDZNCx64qZbNyxCOMSGTSdUQLEIjEhiA2oAEkDcbHcb40POdqIfujzRiQTopVte+rUNJJa/Xex+7FEZNrZPNcXoA/aBlIMmkLqQ80qgSopYLYUWyEAgjVsQSSLH0Sm66yyMdEb2NNi6IquSN/nWOYmLAKZSiAtSt8IseIiyQCdh5k2DjiDp6lV2JJNbHkk7D+GFOc30xqhBLaOx1FbJmy4ctpI8RWlHAFA+YsnbF3/wCp29D/AOcP/ZgZ13IPl5TG/Nb/AMr9vbbA7w+/44RKUrHJJo5uuOfX+X88cljVWa5rHmDHTengldQBZqNsDojQmg71uSfJflzdYCKbCboqZDKzOS8eoaeZNWkL83JAH44vZPoEkthW7zevyasw1c1qOlbregTg3ksqDPpl0uIzpuSio53VR4Ati6F7b+WLMmdMssaDegBVKAhAokEUoF72PS7xQsS8iHlBadnngjEziRVZqWRldF2Pky6gNwRbV5EHATqUM3xyAlTw6kFT/iXa8OnW+qSrK0DTSPEHDaSWA4qlvlR5EbHkc4GdLySySeGVcupB1SG6OxNFBs4v2xssK8GRzfYotISACSQOBew+WObwf6j0htYVlRZHFxtGR3cvsPIMTtW29Aqt4BFdJo8jy9Pn/LE8otD4tM8UkbiwfIjE+Sy0sraIlZm5pb/E+nzOLXS8kG8bKzDUERF2MjmvDfkANyfcDzw3QZbL/dm7yTU4JBy6jRGnoaB1Smxyx2vg84OGNyBnNRFxOjSSvpebvJP93Hqnfb2S12/WxbyXY+SScwFM0rqAzg5bcKfzqDkgHi6O+D/ZztBPAO7hvxKQqCgNRAFtVXVX+Prixn0zUCRyd6zGQM0tNaqdVANRobb8UL+eHLBYn1t0Cj05qPdaXRGZFVUMkpKmmtHphXoBgRn8urxmgASjOrICoYIRqV08mHr6jDUvVxMFEkbO97BWqq/O1kWnzvbHHW8s8kcskCvmMpGul3ZNMkQPxESE/lLIssb2G4WycBLC1sOOVPRmmPcXOp5LuitNqRxqRvUWQQR5MCCCPUfLHHT8m00ixpVseTwBySfYCyflhFO6HX5IQ7GgC3oBZ/AD5njBcdn5UUNO0cAbgStTEevdqC5/y1hl7OZAMD3D9xHuqzVUszUdtRswoSKBUc0DZui/QuoQZVZG+76TLa62Go/3iJDbaiL8xiiGFtWInmSdCVL0IKuvXmioKqXXKnTbcAFpFO/lsMcZ3s6yEKZCjsLCZhGhZvlr8B/zYd+jzKY5NWppZFbxL+YFAKGzQLFgNr875rHUPaGRMq2SkjtqaxMoYAkkgjVYGx5ODeBArP8AozTN5aaBtMgeM8i7Fj1B4I9xiSDLGLxyAbCwNVb3wa3ur+uxw9ZbKKWWDLcm9cbjVDZ/OIaxHvsSN+dhyFPrHT2Ot9BSSOjJFdgKaAdDZtboEEmttz5JniaGxyJgvM5stsNlHl58Dn+vTmhisGI4JF80ce8+x/f/ACwe6T04AISqyTSAsiP8EaD/ALyT1vyXjzN2AVxi5PQcnSB2R6TPMCyIxUcyMaRfm7Uo/HFpOiiyDmA7DkQo8lfNgAv4E4eE6etLLLJHnGRSRFJqCBRViNF0qK9CBflieftE0ojjy6dyVJYJEukKQzaSSAS1IQPc4rWD7J3+R9CIvRQY+9WZwl6e8eGRY7vjWuoA364o5vpk8Q1kEp/vEbUn+ZSRfsd8ad1nqedgUxkMItRZSnhWmB1AhfVmsht7PGBuX6Yszxtlrgcp+UkU13jHkaPhIB5GwJJG9Yx/j/Ry/I+zNi5agST6WfXDKcrHDqUBPyaqZJHXUSW4CrwMEO0nZ8RyGOcRIxOlcxDQQsQCBLGL0HmyAK5pgCQFk6pTFZ0cSraMyEAmvJgQVOJpRcSiMk+i08KSjxKKLBS3d6JI2b4SRwynb8cLsisGKWSQdNAk2Qa2wbyGeaWUJGAgsu7yHV8IvW3ApALCjzAwT6LH4HliLQxrzKBc0n6WliajFeS/KzuRsIORk5KPYBPRZ1W5SIVO9SvpPz0fGf8ALjxR4Sn31dB5H5aj8x3dHDrnunJlmDRQMVXUzzOVcy2RpYORtYIJWhW/POCLFswRmIxlUmUUGjI1qp03W27gCgfdq5w9YWJedGbnpMhFoyzDmo2s/VDTj/Lii0jcEkV5WdvpjQcp3GaeKGeEKYlbvJgdMgpmOq+CRYAsHFLPdPMiyMjjNxJv+VpJwl6QytZ1AnaiSTt4NxgJYa6CjlT0JAx7i7mcjWl4yWjdtIJG4b9FgL3rfbkcYh+6n9OP/wAxf54Q0OTIsvDrdU/SYL+JrB/JzqQ7MWVZXPDAAquygijsNxgHlmKurfnA2B/P+WDWWzLd0hWioGkrt6k1Vbbm698Nw9i8vRO8QALRygKR8Ookn24Hl51WCXR+kieH8lmVE5JvLldOpR6SGwNr5oYCLDraytWtqAQPqdsHemBYIBmlYCcTKoVqYBSrHVVbnarP+uKIrZPJ6IetZDuTIJpdMwYaYVpwAR8RkFKPD5Df1xSyMDsrMrKANxq2v5E0MWc3F94WTMSPT660InOw8V3Q3/GjuNrqU6poVmKfEUb4Sdqqjzvx8sd5s7wE89ApyUtaTMjRuHE6ki2CGkUbWWHivyGAfaI2ZXqi0qsdqovHqYURY8ROL4zS/d5UeOmZdKV+lYqgCN79jgR1ESCL8orqdSAFgRYVNOxPPl+OFZR2K6L3SdmiWlIjiLeIkANIbvYg3pZa+WLWbK3RVYzWxSyD8wSd/fFHoGZIZ11USqVvQYKtUQVIO1EWPI4uTrIymyKFEgKo528gPER5fuwzF8dC8vyD3Z7s+0+XlnM8cWmwms0Xrc73sPLz328jip06OSZlV3ECIbeckGrvyA1MTxXyugMEMllw00XfMnc+HwhR4V2oUb9fpRO/m2doFyYy9PDEokUSRGKwS2+/wgad/wAW43w7i1on5JmZGG2kWORdKMQGY6dS3QNeVjfDV2Z628MiRTTRrFw4UggqeVKiwb9R+OFs9HvYAlm4Ibgc2QRR28r/AAx10/L6bJERCndmJFD9Kr4/bjqfkLTIIcsUQKR4Y5p0S/NTG3n5jUl1/PAXpTaY8xIu1RaB7GRlU/Pwa8GO8lkkklVGMBZnLqpIpY3jB23AJ1c/XCzlpiqMPIlCR8if54il2Wx6HzMaFREYMpVFFxpdUo/O1kVdk0NzirkY8xm3MUZaQgajqbYAeZJ/677Y+MCzAuhbTWskNtzVBQKBvm8ddPSQI0YtEZ9e9DVQoBiBqqroDaydsWbfRHpd9lXLdQMetSSCLArizzyf4YsZnIOuVizYkWncppB3TmtVbKDvt8vXDL0DP5CFKmyqTuGJBIsbgCgrWAPxPn7YAZsqzsyJGEY/2SoKritiu38xjuLfZ3JeCrBFKwMYnU77qA2555Cm9/XFjqvSWjky3iVjLFMj6D8IOoANR3PjDV8sDFyrIAd9LE+HfYfjuB749zBt0SJFZ0YSeDihsBbbkksLHl6YCb9uxkF7tAHqo3j94Y/3YcOnqpmzDH4I+6i2YbKgqqJ3FqCdiBhU6ypRkQjSyxID898FOi5pWeZCBqdtaBuCTdj3O4oexwjDJKY7KriF+pZupAY1EZNr4GDar28vDRxFlM8yykldTk6bbkfwx7L0tkchLJQ+IChRo7i9r9K+eDPS5EiYSTt33iBEbgEar86523229fTFduyPVA7qGZkzWY7uNe9eTcVyQBdAkgEUDtv7YpdPlotqlaKtioHjJ4oX8NYYOuZ+LMSCSJEgkQKPyVqARsCKIAI9q8h74Ada7yaQSFRroBnAoyH9JtO2r1O3vZ3wDcuwoqNUFep5bLtlZGVJDcbeORq1Mo1DmtTCtgLwr9VjOiR2+J4YHPzBCE/Ui/rgg2aMKmR9GwoHTqJsHw+KxuPpW+B+cyjpAQUoCKNLsG2MnebUT5MR+HrhOZ2UYVQP6aQsGZb87SiD/E1n8VUj64ZVhfu1UMiqqDYMPTewPO/XCvk2AhmB2P5NgPXSSD/zD9uGVpVlVWjIJYW35uk+YY3Z+t3jcDRmYrQy95UerSPlsSOLPl8sFfv3dZdo9JBGnWQUNgegA3XcHfA/KZOTdS2lb5Ph55sc/S8HJZIdAiMayMQfyzDcMTYog13YoeEjfzw+Nk8mhQZrt9Oxb0IF81/peLWWRnN2g4FcDbix6D3xdDOkbxJoaOTZlo6SeFei1hxyCBte5I2wPyWXJIoXe2k7Eny33/dhdO6G2mjvO7/eF2JZFl1rZAZGonYbWC+/+mIP9pN/vD/5q/8AtxPmJHleQBL7qEx6V8i7VXudTGzir/srNf7mX8T/ACxPLsfHoB3iRJWX4WIvmsQ4s5nlP69MKQxlzo/UNLgOx0HZr3oHz9vp74ZeodERYGzCZlZVDAaV43IANk3tfFXx64WOmxgsbAP0wzdlj/2Sb5S/8kWKcMm1TJsyrZ50rKRLEuZlm0hZNOkrY2AN0CCQbqrA5wvddzxkkYqSI78KiwAPYWf3n54P9bP/ANvg/wDEH78xj2bKp90DaF1Wd9Ivj1x2T6Mx/YlqTY3O249sS5mdpCSzMRfmSfwGO5eW/V/nitLycTspRZzD6gDwBsAB7fz2wwdk+uQwq6zoWZvhcsRQ9jRIP7PY4Xh/Zr82/hgz2ZhVswgKg+I8j2ODhJqWgJxTi7Dad1JLrWSTTyNJDML2BJ2oE78ef1wzdd6k2ZihjfUwRGJSMUy14Qp5oHY1XAwH7OqD1SOxe8n8MPOZUA9QoV+Tb/lbHoR3dkEtNGfdLzsEBOsq24HikIrbfZSCRdbcmvphV7RZ+OeUtGgUWeLpj67nb0HGGuPwSTaPB+RHw7eQ9MKuZ+L6R/8APibM3xKcSV2Us6zKiRbihbD+8fX5YhyjAWDwdsTda/tX+ZxUTg/T9+JW6ZSuhj7G9Yjykr96oIddOr9A2DdjejwQOfpgt1KcysWEqVv8JG/nuQdz5WfTClkf/T/A4YugeI5fV4vERvvtq438vbFOGTqhGWKuxh7MGcI6QjYLrY6AbKg7NtZBFjSbHthfzOVYSEg93e9EVR9ADW13t5cY1f7MGP3Zls0srADyA9APIe2MvznjzWYZ/Ee9bdtz8R8zh9iEtsu5ftGuWjIZIZzpOmMrZsgiyBsK5JOxofREj2Ri3nsF9T5n/XF/q0h7x9zwPP2GBU3C/L+JxLlk2yrFFJHBX0/6Yt5SSnSQoHCMpZDwwBujXkR4TimvI+eJ8t8Tfqv+7CV2MfRoGb6kuY8cT6dVakYDw3vRUkmvO7r05wPy+XN+bkj4asn1obn3xS6GPh/Wr6aX2wZ6jl0WPWqqrCqYAAjY8HkYsi7WyOSplbqmRYNoK90y0d10sb9bxHlpGT4pAFvfcLxvuTe3+mKvZlzPITOTKaO8niPB/SvEMaBpBqAO45F+S46wuPgj7RdUGakjAjCRxrpsCmdbss1ck3sa88BMzIGYtQsn8P54mzR+P9YfxxRxJN2ymPRPDKL8XB2J86P7/wDTDR0fqRy6HLuAqk6xKig6geCx5K+h8twRhPwcybnuodztIQPYeHbBY3sGe1TC2Zdn3Em3qACfxHPyxOI4ljOqcAgDVGz0xJPIHoKuvlgTlYxq4HDeXzxVljXWNh+GKObEqCCTxupNMGAO1jy/djt+q92GNLI5FU6hgL2JNjbb6njA4oNPA+IeXzxHF/3PzJ+tnfGOWjVFFKbwL3Z5JBb6cL9LJPv8sVNIx7iTEcuylH//2Q==;" vertex="1" parent="1">
          <mxGeometry x="120" y="80" width="104.82" height="60" as="geometry" />
        </mxCell>
      </root>
    </mxGraphModel>
  </diagram>
</mxfile>
